<svg xmlns="http://www.w3.org/2000/svg" width="21.639" height="24" viewBox="0 0 21.639 24">
  <defs>
    <style>
      .cls-1 {
        fill: #fff;
      }
    </style>
  </defs>
  <path id="google-play" class="cls-1" d="M3.751.61,16.875,8.156l-2.813,2.813ZM1.032,0,13.079,12,1.033,24A1.72,1.72,0,0,1,0,22.425c0-.023,0-.046,0-.068V1.641c0-.019,0-.042,0-.065A1.718,1.718,0,0,1,1.022,0l.011,0ZM20.954,10.594a1.668,1.668,0,0,1,.679,1.344c0,.022,0,.043,0,.065v0c0,.043.007.094.007.145A1.558,1.558,0,0,1,21,13.4l0,0L18.186,15,15.14,12l3.047-3.047Zm-17.2,12.8L14.063,13.031l2.813,2.813Z"/>
</svg>
